#!OML:ASF F:\VICON\USERDATA\INSTALL\rory3\rory3.ASF
:FULLY-SPECIFIED
:DEGREES
586
root 4.50124 15.5758 2.09906 23.1847 -7.21139 0.405961
lowerback 12.0432 -2.21135 3.29744
upperback 3.54182 -2.52769 -0.0324282
thorax -3.17796 -1.25892 -1.52038
lowerneck -13.644 -0.955348 -2.23639
upperneck 35.8785 0.00681455 -2.46834
head 14.6898 -0.675478 -0.632644
rclavicle 1.3418e-014 -1.50082e-014
rhumerus -66.4721 58.1916 -63.6352
rradius 68.767
rwrist -19.4451
rhand -7.25898 -39.8793
rfingers 7.12502
rthumb 18.6217 -69.0079
lclavicle 1.3418e-014 -1.50082e-014
lhumerus -55.035 -71.1686 52.0868
lradius 65.3091
lwrist 43.6221
lhand -14.865 -27.561
lfingers 7.12502
lthumb 11.295 2.11493
rfemur -82.5906 -6.19922 23.3348
rtibia 44.3981
rfoot 38.2861 -0.872324
rtoes 6.97372
lfemur -58.5591 -3.6782 -29.9115
ltibia 62.7272
lfoot -25.1941 7.17823
ltoes 11.8904
587
root 4.5042 15.5665 2.09402 23.3412 -7.24222 0.507084
lowerback 11.8901 -2.20517 3.26209
upperback 3.53153 -2.53173 -0.0875818
thorax -3.10636 -1.26009 -1.56237
lowerneck -13.6595 -0.98814 -2.26857
upperneck 35.7851 -0.0706141 -2.36289
head 14.6488 -0.697057 -0.594366
rclavicle 3.1408e-014 -1.21259e-014
rhumerus -66.5371 58.9566 -63.5047
rradius 68.8518
rwrist -20.1547
rhand -7.68147 -39.6172
rfingers 7.12502
rthumb 18.2153 -68.7843
lclavicle 3.1408e-014 -1.21259e-014
lhumerus -55.2988 -71.4819 52.1553
lradius 65.3779
lwrist 43.5403
lhand -15.1192 -27.4339
lfingers 7.12502
lthumb 11.0497 2.25524
rfemur -82.8724 -6.28772 23.3359
rtibia 44.442
rfoot 38.3439 -1.72186
rtoes 8.7029
lfemur -58.7914 -3.74355 -30.038
ltibia 62.7855
lfoot -25.1973 7.19893
ltoes 11.9298
588
root 4.50431 15.5601 2.08594 23.3101 -7.31444 0.637874
lowerback 11.9844 -2.20827 3.10646
upperback 3.5184 -2.55121 -0.113548
thorax -3.16748 -1.27014 -1.49558
lowerneck -13.7928 -0.973736 -2.3195
upperneck 36.009 -0.0398555 -2.32535
head 14.7859 -0.689739 -0.569763
rclavicle 2.08724e-015 -6.95746e-016
rhumerus -66.5748 59.5851 -63.349
rradius 68.8884
rwrist -20.5555
rhand -7.85244 -39.4281
rfingers 7.12502
rthumb 18.0508 -68.6105
lclavicle 2.08724e-015 -6.95746e-016
lhumerus -55.8762 -71.7274 52.5439
lradius 65.4383
lwrist 43.5983
lhand -15.5486 -27.3015
lfingers 7.12502
lthumb 10.6356 2.40935
rfemur -82.9187 -6.26462 23.1437
rtibia 44.4765
rfoot 38.3058 -0.948355
rtoes 7.01005
lfemur -58.8107 -3.75926 -30.1823
ltibia 62.8044
lfoot -25.2135 7.20314
ltoes 12.1006
589
root 4.50562 15.558 2.07563 23.106 -7.32191 0.72853
lowerback 12.2832 -2.20026 3.07037
upperback 3.56788 -2.53617 -0.152811
thorax -3.27832 -1.26313 -1.5093
lowerneck -14.0041 -1.00381 -2.37016
upperneck 36.2998 -0.0872337 -2.2379
head 14.9738 -0.709105 -0.538565
rclavicle 3.28989e-014 -1.42131e-014
rhumerus -66.7497 59.0928 -63.3073
rradius 68.8015
rwrist -19.8939
rhand -7.99498 -39.4296
rfingers 7.12502
rthumb 17.9137 -68.6246
lclavicle 3.28989e-014 -1.42131e-014
lhumerus -55.7729 -71.9285 52.3287
lradius 65.4345
lwrist 43.6623
lhand -16.3869 -27.443
lfingers 7.12502
lthumb 9.82689 2.30765
rfemur -82.747 -6.27958 22.9765
rtibia 44.4746
rfoot 38.1821 -1.42989
rtoes 7.76643
lfemur -58.6357 -3.76591 -30.2831
ltibia 62.8132
lfoot -25.2421 7.25227
ltoes 11.9949
590
root 4.50501 15.5578 2.06487 22.8486 -7.28141 0.78913
lowerback 12.6776 -2.20267 3.10168
upperback 3.67152 -2.5244 -0.202826
thorax -3.38769 -1.25721 -1.56971
lowerneck -14.0846 -1.10015 -2.56635
upperneck 36.2868 -0.271448 -1.94828
head 14.987 -0.773443 -0.413508
rclavicle 3.37934e-015 -3.18055e-015
rhumerus -66.6098 59.0553 -63.1225
rradius 68.6892
rwrist -19.6772
rhand -7.54376 -39.7859
rfingers 7.12502
rthumb 18.3478 -68.9406
lclavicle 3.37934e-015 -3.18055e-015
lhumerus -55.1999 -71.998 51.6744
lradius 65.3578
lwrist 43.6302
lhand -16.5265 -27.6317
lfingers 7.12502
lthumb 9.69225 2.12528
rfemur -82.4812 -6.25311 22.7766
rtibia 44.4258
rfoot 38.2668 -1.04637
rtoes 6.79618
lfemur -58.4061 -3.75241 -30.3351
ltibia 62.8212
lfoot -25.2261 7.23152
ltoes 12.0189
591
root 4.50081 15.5504 2.05827 22.7874 -7.30872 0.753971
lowerback 12.9188 -2.21195 3.09233
upperback 3.65195 -2.5278 -0.184887
thorax -3.5385 -1.26065 -1.53664
lowerneck -13.9953 -1.12799 -2.63034
upperneck 36.2279 -0.293635 -1.96009
head 14.9387 -0.792148 -0.409185
rclavicle 2.44505e-014 -1.23246e-014
rhumerus -66.6419 59.369 -63.0648
rradius 68.6302
rwrist -19.6944
rhand -6.7872 -40.0107
rfingers 7.12502
rthumb 19.0755 -69.0953
lclavicle 2.44505e-014 -1.23246e-014
lhumerus -55.1935 -71.9728 51.5159
lradius 65.2997
lwrist 43.6001
lhand -15.9543 -27.5584
lfingers 7.12502
lthumb 10.2443 2.17218
rfemur -82.4007 -6.10612 22.6996
rtibia 44.3648
rfoot 38.2889 -0.825876
rtoes 6.01924
lfemur -58.4274 -3.68207 -30.28
ltibia 62.8784
lfoot -25.2074 7.16047
ltoes 12.1643
592
root 4.49778 15.5457 2.0532 22.8552 -7.30999 0.66523
lowerback 12.9693 -2.25637 3.07352
upperback 3.54224 -2.58104 -0.0946485
thorax -3.67879 -1.28947 -1.41906
lowerneck -13.8425 -1.04204 -2.46042
upperneck 36.3344 -0.0672512 -2.39155
head 14.9546 -0.733924 -0.582757
rclavicle -1.43125e-014 -4.96962e-016
rhumerus -66.8945 60.0538 -63.1641
rradius 68.6639
rwrist -20.1457
rhand -6.45504 -40.1429
rfingers 7.12502
rthumb 19.3949 -69.1957
lclavicle -1.43125e-014 -4.96962e-016
lhumerus -55.8525 -71.8815 51.9835
lradius 65.2755
lwrist 43.5041
lhand -15.2809 -27.301
lfingers 7.12502
lthumb 10.8938 2.3964
rfemur -82.414 -5.99028 22.7445
rtibia 44.3065
rfoot 38.2527 -0.575926
rtoes 5.29153
lfemur -58.5772 -3.62984 -30.1672
ltibia 62.943
lfoot -25.1848 7.10438
ltoes 12.9508
